<svg width="15" height="15" viewBox="0 0 15 15" fill="none" xmlns="http://www.w3.org/2000/svg">
<g clip-path="url(#clip0)">
<path d="M9.56906 5.43445C9.37503 5.43445 9.21777 5.5917 9.21777 5.78574V12.4251C9.21777 12.619 9.37503 12.7764 9.56906 12.7764C9.76309 12.7764 9.92035 12.619 9.92035 12.4251V5.78574C9.92035 5.5917 9.76309 5.43445 9.56906 5.43445Z" fill="black"/>
<path d="M5.42404 5.43445C5.23001 5.43445 5.07275 5.5917 5.07275 5.78574V12.4251C5.07275 12.619 5.23001 12.7764 5.42404 12.7764C5.61807 12.7764 5.77533 12.619 5.77533 12.4251V5.78574C5.77533 5.5917 5.61807 5.43445 5.42404 5.43445Z" fill="black"/>
<path d="M2.40274 4.46552V13.1205C2.40274 13.6321 2.59032 14.1125 2.91801 14.4572C3.24418 14.8028 3.69811 14.9991 4.17317 14.9999H10.8196C11.2948 14.9991 11.7488 14.8028 12.0748 14.4572C12.4025 14.1125 12.5901 13.6321 12.5901 13.1205V4.46552C13.2415 4.29262 13.6635 3.66333 13.5764 2.99492C13.4891 2.32665 12.9198 1.82675 12.2458 1.82662H10.4472V1.38751C10.4493 1.01824 10.3033 0.663664 10.0419 0.402806C9.78045 0.142086 9.42533 -0.00309479 9.05606 -7.59141e-05H5.93674C5.56748 -0.00309479 5.21235 0.142086 4.95094 0.402806C4.68954 0.663664 4.54353 1.01824 4.54559 1.38751V1.82662H2.74703C2.073 1.82675 1.50367 2.32665 1.41639 2.99492C1.32926 3.66333 1.75135 4.29262 2.40274 4.46552ZM10.8196 14.2973H4.17317C3.57256 14.2973 3.10532 13.7814 3.10532 13.1205V4.4964H11.8875V13.1205C11.8875 13.7814 11.4203 14.2973 10.8196 14.2973ZM5.24817 1.38751C5.24583 1.20459 5.31774 1.02854 5.44755 0.899411C5.57722 0.770285 5.75369 0.699342 5.93674 0.702498H9.05606C9.23912 0.699342 9.41558 0.770285 9.54526 0.899411C9.67507 1.0284 9.74697 1.20459 9.74464 1.38751V1.82662H5.24817V1.38751ZM2.74703 2.52919H12.2458C12.595 2.52919 12.8781 2.81228 12.8781 3.16151C12.8781 3.51074 12.595 3.79382 12.2458 3.79382H2.74703C2.3978 3.79382 2.11471 3.51074 2.11471 3.16151C2.11471 2.81228 2.3978 2.52919 2.74703 2.52919Z" fill="black"/>
<path d="M7.49655 5.43445C7.30252 5.43445 7.14526 5.5917 7.14526 5.78574V12.4251C7.14526 12.619 7.30252 12.7764 7.49655 12.7764C7.69058 12.7764 7.84783 12.619 7.84783 12.4251V5.78574C7.84783 5.5917 7.69058 5.43445 7.49655 5.43445Z" fill="black"/>
</g>
<defs>
<clipPath id="clip0">
<rect width="15" height="15" fill="white"/>
</clipPath>
</defs>
</svg>
