<svg width="25" height="25" fill="none" xmlns="http://www.w3.org/2000/svg"><path d="M12.5 25C19.404 25 25 19.404 25 12.5S19.404 0 12.5 0 0 5.596 0 12.5 5.596 25 12.5 25z" fill="#34AADF"/><path d="M5.202 12.392s6.25-2.565 8.418-3.469c.83-.36 3.649-1.517 3.649-1.517s1.3-.506 1.192.723c-.036.505-.325 2.276-.614 4.19-.434 2.71-.904 5.672-.904 5.672s-.072.831-.686.976c-.614.144-1.626-.506-1.806-.65-.145-.109-2.71-1.735-3.649-2.53-.253-.216-.542-.65.036-1.155 1.3-1.193 2.854-2.674 3.793-3.613.434-.434.867-1.445-.939-.217-2.565 1.77-5.094 3.432-5.094 3.432s-.578.361-1.662.036c-1.083-.325-2.348-.758-2.348-.758s-.867-.542.614-1.12z" fill="#000"/></svg>