<svg width="25" height="25" fill="none" xmlns="http://www.w3.org/2000/svg"><g clip-path="url(#clip0)"><path d="M11.873.003C9.867.03 5.553.359 3.139 2.57 1.348 4.352.721 6.978.649 10.23c-.063 3.24-.136 9.322 5.728 10.98v2.52s-.04 1.01.628 1.22c.822.26 1.291-.52 2.072-1.354l1.459-1.646c4.01.334 7.083-.436 7.437-.55.813-.26 5.397-.845 6.147-6.93.771-6.281-.375-10.24-2.437-12.031l-.01-.003C21.048 1.864 18.548.04 12.953.02c0 0-.412-.026-1.08-.017zm.07 1.767c.568-.003.916.021.916.021 4.73.01 6.991 1.438 7.522 1.917 1.74 1.488 2.634 5.058 1.98 10.303-.626 5.084-4.345 5.407-5.032 5.626-.291.093-3 .76-6.409.54 0 0-2.54 3.064-3.332 3.856-.125.136-.27.178-.365.157-.135-.032-.177-.198-.166-.428l.021-4.186C2.108 18.2 2.4 13.01 2.452 10.303c.063-2.709.573-4.929 2.084-6.429C6.574 2.03 10.239 1.78 11.943 1.77zm.375 2.709a.312.312 0 100 .624h.112c1.589 0 3.03.631 4.087 1.658l-.001-.002c1.135 1.104 1.688 2.584 1.709 4.521 0 .173.14.313.313.313v-.01c.172 0 .312-.14.312-.312a6.7 6.7 0 00-1.887-4.96l.002.001c-1.24-1.208-2.804-1.833-4.647-1.833zm-4.119.718a.987.987 0 00-.645.127l.005-.002h-.013a4.94 4.94 0 00-1.196.98c-.281.333-.438.665-.48.988a1.277 1.277 0 00.055.573l-.003-.01.02.01c.359 1.04.78 1.934 1.287 2.773l-.036-.064a16.16 16.16 0 002.423 3.31l-.007-.007.032.041.041.031.062.063a16.3 16.3 0 003.232 2.385l.081.042c1.375.75 2.21 1.104 2.71 1.25v.01c.146.042.279.063.415.063a1.912 1.912 0 001.15-.493l-.002.002c.406-.365.729-.77.968-1.197v-.01c.24-.447.157-.876-.187-1.168a14.17 14.17 0 00-2.173-1.568l-.066-.036c-.531-.291-1.073-.114-1.292.178l-.468.593c-.24.291-.678.25-.678.25l-.012.01c-3.25-.834-4.115-4.124-4.115-4.124s-.041-.448.26-.678l.584-.468c.281-.23.479-.772.177-1.303A14.122 14.122 0 008.71 5.493l.013.015a.88.88 0 00-.52-.311l-.005-.001.001.001zm4.66.928a.313.313 0 000 .625h.001c1.085.02 2.06.474 2.76 1.197a3.63 3.63 0 01.937 2.688v-.011a.315.315 0 00.313.312l.01.012c.173 0 .313-.14.313-.312v-.001c.031-1.24-.354-2.281-1.115-3.115-.76-.834-1.823-1.302-3.177-1.396h-.045.003zm.51 1.686h-.01a.318.318 0 00-.009.636c1.032.053 1.532.573 1.595 1.647a.313.313 0 00.312.302h.01a.313.313 0 00.303-.313v-.021c-.073-1.396-.834-2.178-2.188-2.25h-.012l-.001-.001z" fill="#665CAC"/></g><defs><clipPath id="clip0"><path fill="#fff" d="M0 0h25v25H0z"/></clipPath></defs></svg>