<svg width="25" height="25" fill="none" xmlns="http://www.w3.org/2000/svg"><path d="M22.656 0H2.344A2.35 2.35 0 000 2.344v20.312A2.35 2.35 0 002.344 25h20.312A2.35 2.35 0 0025 22.656V2.344A2.35 2.35 0 0022.656 0zM20.25 17.5h-.002l-1.867.028c-.277.004-.56.041-.831-.016a2.011 2.011 0 01-.723-.325c-.855-.585-1.66-2.114-2.29-1.914-.568.18-.613 1.294-.616 1.529l-.001.087c-.005.088-.029.286-.14.405-.234.257-.643.205-.99.205h-.131c-.246 0-.49.01-.736-.01-.719-.055-2.374-.359-3.875-1.923-1.77-1.841-3.37-5.162-3.899-6.321-.125-.275-.371-.62-.173-.847a.481.481 0 01.237-.13c.173-.048.356-.042.535-.043l1.747-.01c.286-.002.595-.012.825.158a.503.503 0 01.106.105c.086.112.13.248.185.378.141.336.455 1.048.837 1.71 1.02 1.762 1.5 2.148 1.846 1.963.243-.132.333-.719.361-1.29.04-.803.213-1.721-.264-2.368-.204-.278-.59-.362-.757-.381-.136-.02.089-.337.382-.484.44-.215 1.215-.23 2.133-.22.714.005.923.055 1.202.118.844.205.556.991.556 2.876 0 .605-.107 1.455.327 1.733.186.122.645.02 1.793-1.929a14.43 14.43 0 00.817-1.67c.093-.223.153-.49.36-.615.197-.115.446-.059.674-.06l1.238-.007c.662-.004 1.668-.37 1.892.252.132.367-.288 1.221-1.338 2.622-1.723 2.3-1.918 2.085-.483 3.414 1.367 1.27 1.65 1.89 1.699 1.968.55.928-.612 1.009-.635 1.01l-.001.001z" fill="#fff"/></svg>