<svg width="194" height="24" fill="none" xmlns="http://www.w3.org/2000/svg"><path d="M23.653 1.994c0 .274-.058.488-.175.645a.84.84 0 01-.425.293 25.862 25.862 0 01-3.047.424c-.049.44-.122 1.167-.22 2.183a138.77 138.77 0 00-.264 3.72c-.087 1.466-.166 3.13-.234 4.996a164.88 164.88 0 00-.102 6.02v1.436c.488 0 .971.015 1.45.044.478.02.976.054 1.494.102a.835.835 0 01.513.308.84.84 0 01.175.542.703.703 0 01-.263.498.759.759 0 01-.513.19h-.059a49.928 49.928 0 00-1.64-.117 29.311 29.311 0 00-3.164 0c-.518.03-1.026.069-1.524.117h-.102a.73.73 0 01-.557-.234.758.758 0 01-.03-1.04.833.833 0 01.499-.264c.37-.029.737-.053 1.099-.073.36-.03.727-.053 1.098-.073v-1.436c0-2.138.03-4.14.088-6.005-.8.078-1.602.131-2.402.16a65.699 65.699 0 01-4.79 0 34.888 34.888 0 01-2.286-.16l-.175 7.412 1.128.088 1.171.087a.77.77 0 01.484.264.728.728 0 01.205.513.667.667 0 01-.25.542.787.787 0 01-.526.22h-.059a63.118 63.118 0 00-2.344-.19 46.008 46.008 0 00-4.629 0 57.55 57.55 0 00-2.27.19H.948a.73.73 0 01-.556-.235.759.759 0 01-.03-1.04.833.833 0 01.498-.264l1.084-.087 1.099-.088.337-18.487c-.84-.058-1.69-.145-2.55-.263a.77.77 0 01-.483-.264.756.756 0 01-.176-.483c0-.254.088-.45.264-.586.175-.137.346-.205.512-.205h.088c1.035.156 2.056.268 3.062.336a51.631 51.631 0 004.79.06 26.55 26.55 0 001.758-.118h.058c.195 0 .366.068.513.205a.69.69 0 01.263.483c0 .244-.073.44-.22.586a.766.766 0 01-.497.25l-1.084.087c-.362.03-.733.054-1.114.073l-.234 9.36a31.84 31.84 0 002.256.191 66.507 66.507 0 004.79 0c.81-.03 1.621-.083 2.432-.16.039-1.153.087-2.223.146-3.209.068-.986.132-1.875.19-2.666.069-.8.128-1.49.176-2.065a104 104 0 01.147-1.392c-.39-.02-.777-.044-1.157-.073-.372-.03-.743-.078-1.114-.147a.79.79 0 01-.468-.249.776.776 0 01-.176-.498c0-.244.083-.434.249-.571.175-.137.346-.205.512-.205h.118c.39.078.78.132 1.172.161a15.7 15.7 0 003.09-.073c.655-.078 1.333-.2 2.037-.366h.175c.186 0 .342.058.469.175.137.108.23.25.278.425zm15.117 13.3a35.881 35.881 0 00-1.142-3.046 34.44 34.44 0 00-1.187-2.52 24.108 24.108 0 00-1.098-1.962 33.218 33.218 0 00-.88-1.392 67.465 67.465 0 00-2.445 4.526 53.336 53.336 0 00-1.905 4.395c.782.088 1.534.161 2.256.22.723.048 1.44.073 2.154.073.703 0 1.4-.024 2.094-.073a60.563 60.563 0 002.154-.22zm9.99 8.043a.131.131 0 01-.058-.015c-.02 0-.039-.01-.058-.029A31.06 31.06 0 0046.007 23a37.882 37.882 0 00-2.578-.088c-.85 0-1.69.03-2.52.088-.82.059-1.64.156-2.46.293-.02.02-.04.03-.06.03a.13.13 0 01-.058.014.74.74 0 01-.557-.25.803.803 0 01-.22-.541.756.756 0 01.66-.747c.39-.078.786-.137 1.186-.176.4-.049.81-.098 1.23-.146a57.03 57.03 0 01-.175-.689 17.196 17.196 0 00-.278-.996c-.108-.38-.24-.82-.396-1.318a56.86 56.86 0 00-.527-1.714c-.83.117-1.631.21-2.402.278-.772.059-1.548.088-2.33.088-.79 0-1.591-.03-2.402-.088-.81-.068-1.66-.161-2.549-.278a41.765 41.765 0 00-1.26 4.585c.606.02 1.212.068 1.817.146.615.069 1.24.171 1.875.308a.64.64 0 01.425.264.756.756 0 01.175.483c0 .224-.087.41-.263.556-.166.157-.342.235-.528.235a.1.1 0 01-.073-.03.164.164 0 00-.073-.014c-.645-.137-1.28-.24-1.904-.308a16.691 16.691 0 00-1.846-.102 15.4 15.4 0 00-1.787.102c-.586.069-1.182.171-1.787.308a.164.164 0 00-.073.015.1.1 0 01-.074.029.73.73 0 01-.556-.235.786.786 0 01-.22-.556c0-.176.054-.332.161-.469a.799.799 0 01.44-.278c.439-.108.878-.19 1.318-.25.45-.058.908-.107 1.377-.146a42.236 42.236 0 011.304-4.834 50.866 50.866 0 011.919-4.878 62.978 62.978 0 012.578-5.024 81.771 81.771 0 013.266-5.244.771.771 0 01.293-.25.805.805 0 01.674 0 .59.59 0 01.264.191c2.05 2.617 3.808 5.586 5.273 8.907 1.475 3.31 2.686 7.036 3.633 11.176a50.13 50.13 0 012.974.352c.195.03.351.117.468.264.127.146.19.307.19.483 0 .215-.087.4-.263.556-.166.157-.342.235-.527.235zM72.11 1.73a.83.83 0 01-.146.47.656.656 0 01-.381.278c-.342.087-.679.17-1.01.249-.333.068-.67.127-1.011.175a47.24 47.24 0 01.527 4.497c.107 1.455.161 2.896.161 4.322a64.7 64.7 0 01-.234 5.595c-.147 1.797-.328 3.56-.542 5.289a.852.852 0 01-.308.483.7.7 0 01-.469.176c-.332 0-.561-.157-.688-.47a41.044 41.044 0 00-1.128-2.445 80.73 80.73 0 00-1.597-3.135 164.702 164.702 0 00-1.875-3.486 254.904 254.904 0 00-1.933-3.487 352.91 352.91 0 00-1.773-3.15c-.556-.986-1.03-1.82-1.42-2.504l-.44 16.977c.37.03.747.059 1.128.088l1.172.088a.77.77 0 01.483.264.728.728 0 01.205.513.667.667 0 01-.249.542.817.817 0 01-.527.205h-.059a47.235 47.235 0 00-4.673-.235 44.86 44.86 0 00-4.57.235h-.059a.76.76 0 01-.556-.235.703.703 0 01-.22-.512c0-.196.063-.367.19-.513a.833.833 0 01.498-.264l1.084-.088c.372-.029.738-.058 1.1-.088l.336-18.486c-.84-.058-1.69-.146-2.549-.264a.77.77 0 01-.483-.263.857.857 0 01-.176-.528c0-.234.088-.415.264-.542.175-.136.346-.205.512-.205h.088c1.045.137 2.066.245 3.062.323 1.006.068 2.007.102 3.003.102h1.084c.01 0 .039.005.088.015.048 0 .102.01.16.03a.659.659 0 01.206.102.684.684 0 01.205.205l.38.659a280.54 280.54 0 012.007 3.516c.45.78.923 1.616 1.421 2.504a205.004 205.004 0 013.106 5.64c.517.947 1.01 1.875 1.48 2.783.478.899.908 1.739 1.288 2.52.127-1.28.235-2.578.323-3.897a61 61 0 00.132-4.057c0-1.387-.054-2.803-.162-4.248a52.97 52.97 0 00-.527-4.453 2.41 2.41 0 01-.366.029h-.381c-.576 0-1.177-.03-1.802-.088a.766.766 0 01-.498-.25.815.815 0 01-.19-.526c0-.215.078-.396.234-.542a.803.803 0 01.542-.22h.088c.273.039.542.068.806.088.273.01.547.014.82.014.674 0 1.333-.044 1.978-.131a15.052 15.052 0 001.89-.381.485.485 0 01.204-.03c.215 0 .39.079.528.235.146.146.22.317.22.512zm20.918 10.855c0-1.553-.263-2.93-.79-4.13-.528-1.212-1.256-2.218-2.183-3.018-.918-.811-2.012-1.407-3.282-1.788-1.26-.39-2.622-.542-4.087-.454v18.882c.938.03 1.846-.054 2.725-.249s1.7-.488 2.461-.879a9.88 9.88 0 002.095-1.45 8.968 8.968 0 001.626-1.919c.459-.713.81-1.49 1.054-2.329a9.16 9.16 0 00.381-2.666zm1.538 0c0 1.21-.16 2.324-.483 3.34a9.97 9.97 0 01-1.318 2.754 9.683 9.683 0 01-2.037 2.153 12.297 12.297 0 01-2.622 1.553c-.947.41-1.958.717-3.032.923a16.912 16.912 0 01-3.325.322c-.957 0-1.826-.049-2.607-.147a26.462 26.462 0 01-2.007-.322 16.503 16.503 0 01-1.319-.322l-.512-.176a.856.856 0 01-.367-.278.742.742 0 01-.146-.44.71.71 0 01.249-.556.804.804 0 01.542-.22c.049 0 .093.005.132.015.039.01.083.024.132.043.127.05.278.098.454.147.283.088.703.19 1.26.308V3.737a23.45 23.45 0 00-1.48.352c-.205.058-.386.112-.542.161-.049.02-.093.034-.132.044a.544.544 0 01-.132.015.685.685 0 01-.542-.235.835.835 0 01-.205-.542c0-.166.044-.312.132-.44a.655.655 0 01.381-.278c.04-.01.254-.073.645-.19.4-.127.932-.259 1.596-.395a25.48 25.48 0 012.359-.381 22.47 22.47 0 012.9-.176c1.719 0 3.31.23 4.775.688 1.465.45 2.735 1.128 3.809 2.036 1.074.909 1.914 2.046 2.52 3.414.615 1.367.922 2.959.922 4.775zm31.919 9.99a9.925 9.925 0 00-.761-.03h-.762a44.99 44.99 0 00-4.16.191 46.666 46.666 0 00-4.043.528h-.147a.686.686 0 01-.542-.235.73.73 0 01-.205-.512c0-.176.054-.337.161-.484a.716.716 0 01.469-.264c.361-.078.728-.146 1.099-.204.371-.06.757-.113 1.157-.162-.02-.293-.054-.732-.103-1.318a69.226 69.226 0 00-.175-2.08 121.638 121.638 0 00-.645-5.757 93.939 93.939 0 00-.513-3.34 65.98 65.98 0 00-.673-3.428 128.65 128.65 0 00-.879 2.212c-.313.83-.64 1.71-.982 2.637-.332.918-.669 1.86-1.01 2.827l-.997 2.827c-.312.918-.61 1.783-.893 2.593-.274.81-.513 1.524-.718 2.139-.205.615-.371 1.108-.498 1.48a8.49 8.49 0 00-.176.57.594.594 0 01-.278.367.799.799 0 01-.44.132.852.852 0 01-.41-.103.639.639 0 01-.278-.278l-7.104-13.887a283.445 283.445 0 00-.586 4.702c-.079.645-.157 1.314-.235 2.007-.068.684-.137 1.357-.205 2.022a87.547 87.547 0 00-.176 1.875 70.878 70.878 0 00-.088 1.596c.42.02.845.059 1.275.117.43.05.874.122 1.333.22a.64.64 0 01.425.264.72.72 0 01.175.483c0 .254-.087.445-.263.572-.176.117-.337.175-.484.175h-.161a17.045 17.045 0 00-1.684-.234 15.394 15.394 0 00-1.64-.088c-.42 0-.836.015-1.246.044-.4.03-.806.083-1.216.161h-.117a.73.73 0 01-.557-.234.768.768 0 01-.22-.542.72.72 0 01.176-.484.767.767 0 01.454-.278c.362-.059.723-.102 1.084-.132.371-.03.738-.053 1.1-.073.019-.488.058-1.113.116-1.875.069-.762.147-1.616.235-2.564a143.505 143.505 0 01.82-6.474c.176-1.172.371-2.359.586-3.56a90.08 90.08 0 01.732-3.53 17.926 17.926 0 01-1.626-.132 13.057 13.057 0 01-1.582-.337.796.796 0 01-.41-.278.718.718 0 01-.161-.454.73.73 0 01.234-.557.803.803 0 01.542-.22h.103c.03 0 .068.01.117.03.527.136 1.055.244 1.582.322a12.631 12.631 0 002.197.088 8.07 8.07 0 01.484-.015c.283 0 .512.127.688.381l7.471 13.74c.283-.83.576-1.684.879-2.563.312-.889.625-1.763.937-2.622.323-.87.635-1.71.938-2.52.303-.81.591-1.557.864-2.24.283-.685.537-1.285.762-1.803.234-.517.434-.918.6-1.2a.721.721 0 01.66-.367 235.274 235.274 0 014.409-.352 189.7 189.7 0 011.435-.117c.391-.03.669-.054.835-.073.03 0 .054-.005.074-.015a.128.128 0 01.058-.014c.225 0 .41.083.557.249a.759.759 0 01-.44 1.29c-.156.028-.4.067-.732.116l-1.245.146c.058.41.146.987.263 1.729.127.732.259 1.577.396 2.534a259.683 259.683 0 01.908 6.49c.147 1.152.274 2.294.381 3.427.117 1.133.205 2.197.264 3.194h1.684c.264 0 .523.01.777.029a.69.69 0 01.527.22.69.69 0 01.22.527c0 .224-.078.41-.235.556a.735.735 0 01-.542.22zm15.674-7.28a35.92 35.92 0 00-1.142-3.047 34.778 34.778 0 00-1.187-2.52 23.983 23.983 0 00-1.099-1.962 32.609 32.609 0 00-.878-1.392 67.302 67.302 0 00-2.447 4.526 53.435 53.435 0 00-1.904 4.395 72.42 72.42 0 002.256.22c.722.048 1.44.073 2.153.073.703 0 1.401-.024 2.095-.073a59.35 59.35 0 002.153-.22zm9.99 8.042a.128.128 0 01-.058-.015c-.02 0-.039-.01-.059-.029a31.019 31.019 0 00-2.636-.293 37.911 37.911 0 00-2.579-.088c-.849 0-1.689.03-2.519.088a26.45 26.45 0 00-2.461.293c-.02.02-.039.03-.059.03a.128.128 0 01-.058.014.74.74 0 01-.557-.25.806.806 0 01-.22-.541c0-.176.059-.337.176-.483a.77.77 0 01.484-.264c.39-.078.786-.137 1.186-.176.4-.049.811-.098 1.231-.146a49.995 49.995 0 01-.176-.689 17.021 17.021 0 00-.279-.996c-.107-.38-.239-.82-.395-1.318a58.882 58.882 0 00-.527-1.714 46.78 46.78 0 01-2.403.278c-.771.059-1.548.088-2.329.088-.791 0-1.592-.03-2.402-.088a54.703 54.703 0 01-2.549-.278 41.612 41.612 0 00-1.26 4.585c.606.02 1.211.068 1.817.146.615.069 1.24.171 1.875.308a.64.64 0 01.424.264.752.752 0 01.176.483c0 .224-.088.41-.263.556-.167.157-.342.235-.528.235a.099.099 0 01-.073-.03.165.165 0 00-.073-.014c-.645-.137-1.28-.24-1.905-.308a16.679 16.679 0 00-1.845-.102c-.606 0-1.201.034-1.787.102-.586.069-1.182.171-1.788.308a.165.165 0 00-.073.015.099.099 0 01-.073.029.73.73 0 01-.557-.235.788.788 0 01-.219-.556c0-.176.053-.332.161-.469a.798.798 0 01.439-.278c.44-.108.879-.19 1.319-.25.449-.058.908-.107 1.377-.146a42.251 42.251 0 011.303-4.834 50.893 50.893 0 011.919-4.878 63.242 63.242 0 012.578-5.024 81.827 81.827 0 013.267-5.244.768.768 0 01.293-.25.808.808 0 01.674 0c.107.04.195.103.263.191 2.051 2.617 3.809 5.586 5.274 8.907 1.474 3.31 2.685 7.036 3.633 11.176a50.33 50.33 0 012.973.352c.196.03.352.117.469.264.127.146.19.307.19.483a.72.72 0 01-.263.556c-.166.157-.342.235-.528.235zm19.629-10.752c0-1.553-.263-2.93-.791-4.13-.527-1.212-1.255-2.218-2.182-3.018-.918-.811-2.012-1.407-3.282-1.788-1.259-.39-2.622-.542-4.086-.454v18.882c.937.03 1.845-.054 2.724-.249a10.235 10.235 0 002.461-.879 9.87 9.87 0 002.095-1.45 8.956 8.956 0 001.626-1.919c.459-.713.81-1.49 1.054-2.329a9.16 9.16 0 00.381-2.666zm1.538 0c0 1.21-.161 2.324-.483 3.34a9.97 9.97 0 01-1.318 2.754 9.697 9.697 0 01-2.036 2.153 12.306 12.306 0 01-2.623 1.553c-.947.41-1.958.717-3.032.923a16.905 16.905 0 01-3.325.322c-.957 0-1.826-.049-2.607-.147a26.395 26.395 0 01-2.007-.322 16.573 16.573 0 01-1.319-.322l-.512-.176a.849.849 0 01-.366-.278.74.74 0 01-.147-.44.71.71 0 01.249-.556.804.804 0 01.542-.22c.049 0 .093.005.132.015.039.01.083.024.132.043.127.05.278.098.454.147.283.088.703.19 1.26.308V3.737a23.55 23.55 0 00-1.48.352 23.03 23.03 0 00-.542.161c-.049.02-.093.034-.132.044a.545.545 0 01-.132.015.686.686 0 01-.542-.235.839.839 0 01-.205-.542c0-.166.044-.312.132-.44a.656.656 0 01.381-.278c.039-.01.254-.073.645-.19.4-.127.932-.259 1.596-.395.674-.147 1.46-.274 2.359-.381a22.46 22.46 0 012.9-.176c1.719 0 3.311.23 4.775.688 1.465.45 2.735 1.128 3.809 2.036 1.074.909 1.914 2.046 2.52 3.414.615 1.367.922 2.959.922 4.775zm19.38 10.02a.712.712 0 01-.263.468.76.76 0 01-.513.19h-.029A115.221 115.221 0 00184.2 23c-2.539 0-4.985.088-7.339.264h-.073a.906.906 0 01-.557-.235.708.708 0 01-.219-.542c0-.195.068-.361.205-.498a.778.778 0 01.512-.249c.313-.03.625-.049.938-.058l.952-.059V3.767a15.01 15.01 0 00-.937-.03h-.923a.876.876 0 01-.528-.234.738.738 0 01-.219-.542c0-.215.078-.396.234-.542a.744.744 0 01.542-.234c.371.02.728.029 1.069.029h1.04a91.794 91.794 0 0012.291-.82h.131c.196 0 .362.068.498.205.137.127.22.278.249.454l.63 4.95v.103a.667.667 0 01-.249.542.78.78 0 01-.527.206.774.774 0 01-.498-.176.873.873 0 01-.264-.484l-.527-4.174a66.387 66.387 0 01-3.413.38c-1.133.088-2.276.162-3.428.22v9.653c.234-.01.547-.024.938-.043.39-.02.81-.05 1.259-.088a81.3 81.3 0 001.392-.132c.478-.059.923-.127 1.333-.205h.146c.205 0 .386.078.542.234a.68.68 0 01.235.513.74.74 0 01-.176.498.876.876 0 01-.454.278c-.449.088-.933.161-1.45.22-.508.058-1.006.107-1.494.146a108.373 108.373 0 01-2.271.117v6.666h.41c1.162 0 2.329.014 3.501.043 1.182.03 2.368.084 3.56.162l.527-3.926a.802.802 0 01.264-.469.738.738 0 01.498-.19c.234 0 .42.083.556.249.147.166.22.332.22.498v.117l-.63 4.644z" fill="#fff"/></svg>