<svg width="20" height="20" fill="none" xmlns="http://www.w3.org/2000/svg"><g clip-path="url(#clip0)"><path d="M17.232 13.92c-1.208-1.033-2.434-1.66-3.627-.627l-.713.623c-.521.453-1.49 2.568-5.239-1.744-3.747-4.305-1.517-4.976-.995-5.425l.717-.624c1.187-1.034.739-2.336-.117-3.676l-.517-.812C5.88.298 4.944-.58 3.754.453l-.643.562C2.585 1.398 1.114 2.644.758 5.01c-.43 2.84.925 6.09 4.027 9.659 3.099 3.569 6.132 5.361 9.006 5.33 2.388-.025 3.83-1.307 4.282-1.773l.645-.563c1.187-1.032.45-2.082-.76-3.118l-.726-.625z" fill="#fff"/></g><defs><clipPath id="clip0"><path fill="#fff" d="M0 0h20v20H0z"/></clipPath></defs></svg>