<svg width="23" height="25" fill="none" xmlns="http://www.w3.org/2000/svg"><path d="M22.09 15.438v-8.97L4.418 3.275V2.173A2.176 2.176 0 002.245 0H0v1.473h2.245a.7.7 0 01.7.7v13.598a2.85 2.85 0 002.847 2.847h.59v1.679a2.457 2.457 0 00-3.436 2.249A2.457 2.457 0 005.4 25c1.27 0 2.318-.97 2.442-2.209h.012v-4.173h12.764v1.679a2.457 2.457 0 00-3.436 2.249A2.457 2.457 0 0019.635 25c1.27 0 2.318-.97 2.442-2.209h.012v-5.645H5.792a1.376 1.376 0 01-1.374-1.375v-.579l17.672.246zM5.4 23.528a.983.983 0 010-1.964.983.983 0 010 1.963zm14.236 0a.983.983 0 010-1.964.983.983 0 010 1.963zm-7.854-9.706l-2.946-.041v-8.21l2.945.531v7.72zm1.472-7.454l2.7.488v7.024l-2.7-.038V6.368zm-5.89 7.393l-2.946-.041V4.773l2.945.532v8.456zm13.253.184l-3.19-.045V7.122l3.19.576v6.247z" fill="#000"/></svg>